<svg width="210" height="210" viewBox="0 0 210 210" fill="none" xmlns="http://www.w3.org/2000/svg">
<path fill-rule="evenodd" clip-rule="evenodd" d="M103.353 37.0784C111.217 37.0784 118.123 41.184 122.042 47.3687C123.857 50.2313 128.487 51.5462 131.532 50.059C134.458 48.6301 137.746 47.8282 141.222 47.8282C150.222 47.8282 157.966 53.2055 161.417 60.9226C161.431 60.9548 161.409 60.9917 161.374 60.9943V60.9943C161.346 60.9965 161.325 61.0216 161.327 61.0498C161.953 69.352 160.661 74.7458 158.574 78.2296C156.542 81.621 153.483 83.6621 149.515 84.7499C142.949 86.5502 134.435 85.6016 125.963 83.7073C124.23 83.3196 123.005 81.828 122.654 80.0868C121.697 75.3314 119.501 71.6541 116.437 68.9544C112.648 65.6171 107.92 64.114 103.663 63.4613C101.397 63.1139 99.1664 62.9925 97.1245 62.9928C94.6721 62.9931 92.6168 61.0471 92.2506 58.6222C91.6246 54.4767 90.1045 50.8002 88.2401 47.6976C87.2498 46.0496 87.2646 43.9016 88.7042 42.6272C92.6049 39.1744 97.7344 37.0784 103.353 37.0784ZM81.5879 52.7953C81.3165 52.2957 80.9289 51.8683 80.4564 51.552C76.9429 49.1999 72.7176 47.8282 68.172 47.8282C55.9607 47.8282 46.0615 57.7274 46.0615 69.9387C46.0615 71.6656 46.2594 73.3462 46.6339 74.9592C46.719 75.3256 46.4377 75.6801 46.0615 75.6801V75.6801C33.8502 75.6801 23.951 85.5793 23.951 97.7906C23.951 98.9287 24.037 100.047 24.2029 101.139C24.488 103.016 26.2454 104.219 28.1418 104.129C36.0654 103.753 45.1374 103.316 52.3947 102.953C63.2828 102.409 76.6487 98.9824 83.9342 96.7349C84.2706 96.5783 84.6197 96.4706 84.9727 96.4095C85.5403 96.2288 86.0606 96.0582 86.5284 95.9V95.9C87.4357 95.5933 88.4211 95.6095 89.3179 95.9458V95.9458C93.0856 97.3587 100.249 98.5818 106.063 97.2048C108.886 96.5361 111.084 95.3306 112.544 93.5551C113.962 91.83 115.057 89.1143 114.854 84.6568C114.634 79.8011 112.971 76.9767 110.943 75.1901C108.792 73.2949 105.8 72.1963 102.404 71.6756C99.0347 71.1591 95.6065 71.2629 92.927 71.4901C91.662 71.5973 90.5998 71.7284 89.7837 71.8291L89.6619 71.8441L89.661 71.8442L89.6608 71.8443L89.6603 71.8443L89.6596 71.8444L89.6589 71.8445C89.2786 71.8914 88.8591 71.943 88.5346 71.9695C88.4031 71.9802 88.0901 72.005 87.7455 71.9884L87.7418 71.9882H87.7417C87.614 71.9821 87.1414 71.9594 86.5858 71.7771C86.3108 71.6869 85.6967 71.4582 85.0892 70.9129C84.3757 70.2727 83.7038 69.2022 83.7038 67.8092V67.8092C83.7038 67.5181 83.7344 67.2279 83.7951 66.9432V66.9432C84.9576 61.4883 83.672 56.6329 81.5879 52.7953ZM38.0783 111.974C34.6 112.141 33.1374 116.068 36.2577 117.614C37.72 118.339 39.274 118.906 40.8975 119.295C42.5791 119.697 43.9832 120.903 44.6361 122.504C47.9291 130.579 55.8589 136.27 65.118 136.27C65.5327 136.27 65.9447 136.259 66.3538 136.236C68.7243 136.106 70.0416 133.672 69.6048 131.338C68.616 126.055 68.9154 121.15 70.0047 116.77C70.8727 113.28 67.8329 109.352 64.2853 109.943C60.4171 110.588 56.5041 111.068 52.8097 111.253C48.3535 111.476 43.2151 111.726 38.0783 111.974ZM78.1205 131.386C78.3583 132.362 78.9913 133.2 79.8772 133.674C82.9784 135.331 86.5207 136.27 90.2825 136.27C95.9124 136.27 101.051 134.166 104.954 130.701C107.382 128.547 111.785 128.547 114.212 130.701C118.116 134.166 123.254 136.27 128.884 136.27C129.866 136.27 130.832 136.206 131.78 136.082C133.333 135.879 134.912 136.376 136.068 137.434C136.385 137.725 136.71 138.006 137.044 138.277C138.047 139.094 138.728 140.26 138.873 141.545C140.549 156.358 150.015 167.074 156.652 172.191C158.215 173.396 160.403 173.056 161.706 171.575V171.575C164.017 168.951 163.698 161.142 162.285 157.945C161.767 156.774 161.237 155.418 160.702 153.854C159.021 148.935 160.779 143.874 163.416 139.755C163.682 139.339 164.035 138.987 164.428 138.686C168.552 135.527 171.532 130.948 172.635 125.678C172.651 125.602 172.589 125.531 172.511 125.538V125.538C172.446 125.544 172.389 125.497 172.384 125.433C172.024 121.555 170.378 116.054 166.83 112.041C164.605 109.524 161.513 107.439 157.098 106.806C154.865 106.485 153.126 108.442 152.957 110.692C152.891 111.56 152.795 112.431 152.664 113.303C152.324 115.573 150.209 117.137 147.94 116.797C145.67 116.458 144.106 114.342 144.446 112.073C145.253 106.679 144.362 101.12 143.148 96.8372C142.663 95.1275 141.047 94.0412 139.271 93.9716C135.044 93.806 130.736 93.1795 126.605 92.3449C124.357 91.8908 122.171 93.2952 121.176 95.3614C120.569 96.6216 119.829 97.7791 118.963 98.8328C116.018 102.415 111.984 104.343 107.978 105.291C101.003 106.943 93.2032 105.857 88.1541 104.319C87.9437 104.255 87.7226 104.255 87.5129 104.322V104.322C87.4127 104.354 87.3183 104.399 87.2324 104.459C82.3602 107.907 74.8962 118.148 78.1205 131.386ZM176.341 111.124C177.761 113.581 181.075 114.5 182.772 112.226C185.524 108.54 187.153 103.966 187.153 99.0122C187.153 89.0558 180.572 80.6364 171.523 77.8666C169.592 77.2754 167.7 78.5367 166.84 80.3644C166.491 81.1054 166.112 81.8172 165.703 82.5002C162.367 88.0693 157.327 91.2252 151.713 92.7644V92.7644C151.157 92.9167 150.828 93.4961 150.991 94.0485C151.173 94.6646 151.349 95.3037 151.517 95.9629C151.867 97.3356 153.128 98.2859 154.544 98.3006C162.731 98.3854 168.83 101.756 173.056 106.536C174.333 107.98 175.421 109.53 176.341 111.124ZM87.8329 63.6885C87.8332 63.6883 87.8416 63.6876 87.857 63.6868L87.8407 63.6881C87.8374 63.6883 87.8351 63.6884 87.8339 63.6885C87.8331 63.6885 87.8328 63.6885 87.8329 63.6885Z" fill="#6953EE"/>
</svg>
