<?xml version="1.0" standalone="no"?>
<!DOCTYPE svg PUBLIC "-//W3C//DTD SVG 20010904//EN"
 "http://www.w3.org/TR/2001/REC-SVG-20010904/DTD/svg10.dtd">
<svg version="1.0" xmlns="http://www.w3.org/2000/svg"
 width="512.000000pt" height="416.000000pt" viewBox="0 0 512.000000 416.000000"
 preserveAspectRatio="xMidYMid meet">

<g transform="translate(0.000000,416.000000) scale(0.100000,-0.100000)"
fill="#000000" stroke="none">
<path d="M2238 4123 c7 -3 16 -2 19 1 4 3 -2 6 -13 5 -11 0 -14 -3 -6 -6z"/>
<path d="M2436 3971 c-3 -4 -18 -6 -32 -3 -17 3 -25 1 -21 -5 9 -14 -29 -23
-41 -11 -14 14 -65 1 -56 -14 4 -7 3 -8 -5 -4 -37 23 -317 -170 -296 -205 4
-5 1 -9 -4 -9 -13 0 -15 -37 -2 -44 4 -3 11 -19 14 -36 4 -18 13 -30 22 -30 8
0 15 -9 15 -20 0 -11 -5 -20 -12 -20 -9 0 -9 -3 0 -12 7 -7 12 -23 12 -35 0
-13 7 -37 14 -52 8 -15 15 -37 15 -47 1 -30 19 -171 26 -204 4 -20 14 -31 28
-34 35 -7 99 -16 144 -21 23 -2 50 -8 62 -14 11 -6 39 -11 62 -11 97 0 192
-50 287 -149 83 -87 124 -162 158 -291 l22 -85 123 3 c68 2 153 8 189 13 36 6
75 10 88 10 12 -1 25 6 29 15 4 11 8 12 13 4 7 -11 34 -7 210 31 25 5 47 14
48 19 2 6 8 8 13 4 14 -8 116 24 178 57 136 72 279 172 273 191 -1 4 2 7 6 6
17 -5 61 57 52 72 -5 9 -5 19 2 27 8 10 6 13 -8 14 -11 0 -14 3 -6 6 14 6 16
43 2 43 -5 0 -10 7 -10 15 0 8 -5 15 -12 15 -9 0 -9 3 0 12 14 14 16 32 3 24
-5 -3 -8 0 -8 7 2 25 -16 87 -25 87 -5 0 -6 5 -3 11 11 16 -41 88 -111 155
-35 33 -64 60 -64 58 0 -1 -13 11 -30 27 -16 17 -34 28 -39 25 -5 -3 -11 1
-14 9 -7 15 -88 42 -152 49 -22 2 -47 6 -55 8 -9 2 -14 -3 -12 -12 2 -8 0 -12
-4 -8 -4 4 -14 2 -23 -4 -13 -10 -14 -10 -3 2 32 36 0 57 -56 35 -20 -8 -68
-16 -105 -19 -38 -3 -75 -10 -84 -17 -8 -7 -20 -14 -27 -15 -6 -1 -44 -21 -85
-44 -40 -23 -77 -38 -82 -33 -4 4 -12 27 -17 51 -20 87 -125 227 -230 304 -72
54 -162 89 -241 93 -35 3 -66 7 -69 10 -3 2 -12 -1 -20 -8 -13 -9 -14 -9 -8 1
5 8 1 12 -13 12 -11 0 -22 -4 -25 -9z m1024 -346 c7 -9 8 -15 2 -15 -5 0 -12
7 -16 15 -3 8 -4 15 -2 15 2 0 9 -7 16 -15z m345 -115 c3 -6 -1 -7 -9 -4 -18
7 -21 14 -7 14 6 0 13 -4 16 -10z m-1680 -170 c3 -5 1 -10 -4 -10 -6 0 -11 5
-11 10 0 6 2 10 4 10 3 0 8 -4 11 -10z m1800 -20 c3 -5 1 -10 -4 -10 -6 0 -11
5 -11 10 0 6 2 10 4 10 3 0 8 -4 11 -10z m-1700 -112 c6 -4 2 -8 -7 -8 -10 0
-18 7 -18 17 0 9 3 12 8 7 4 -5 12 -12 17 -16z"/>
<path d="M1217 3619 c-32 -10 -71 -28 -87 -39 -15 -11 -33 -20 -40 -20 -22 0
-100 -68 -195 -170 -35 -38 -65 -92 -65 -118 0 -12 -8 -34 -17 -49 -31 -47
-36 -262 -9 -357 23 -78 23 -78 -31 -71 -89 12 -108 12 -123 5 -8 -4 -48 -15
-89 -24 -101 -22 -192 -75 -282 -165 -88 -89 -130 -167 -160 -300 -21 -98 -24
-159 -8 -230 10 -46 13 -51 45 -57 19 -3 166 -5 327 -3 230 3 298 7 311 18 9
7 16 9 16 3 0 -27 383 28 475 68 24 10 390 132 455 150 25 8 49 16 54 18 5 3
21 6 35 8 14 1 60 7 101 14 127 20 317 -7 362 -52 10 -10 23 -19 28 -19 6 -1
14 -2 19 -3 5 0 13 -4 17 -9 10 -10 61 -9 82 2 9 5 43 22 75 37 65 31 79 51
97 137 11 56 15 200 6 216 -3 4 -7 20 -10 35 -13 74 -39 135 -72 174 -45 53
-183 122 -243 122 -22 0 -43 5 -46 10 -8 13 -45 13 -45 0 0 -7 -6 -7 -17 -2
-10 6 -38 13 -63 17 -83 13 -165 37 -184 53 -17 16 -57 93 -69 137 -8 25 -17
79 -23 125 -2 19 -6 46 -9 60 -3 14 -7 41 -10 60 -3 19 -9 36 -14 38 -6 2 -8
9 -5 16 10 25 -45 73 -131 114 -114 56 -148 64 -285 67 -90 2 -128 -2 -173
-16z m1100 -875 c-3 -3 -12 -4 -19 -1 -8 3 -5 6 6 6 11 1 17 -2 13 -5z"/>
<path d="M4185 2801 c-12 -5 -27 -16 -34 -25 -7 -9 -17 -16 -22 -16 -4 0 -39
-23 -76 -51 -37 -28 -75 -54 -83 -57 -8 -3 -28 -15 -45 -28 -16 -12 -73 -38
-125 -59 -111 -43 -150 -62 -150 -73 0 -5 18 -38 40 -75 22 -36 46 -90 54
-120 15 -57 40 -112 55 -121 4 -3 42 -8 82 -12 41 -3 82 -10 92 -16 10 -5 50
-20 90 -33 40 -13 88 -30 108 -37 119 -44 282 -194 343 -316 19 -38 43 -73 53
-76 38 -15 233 230 233 294 0 9 4 20 10 26 15 15 28 129 26 229 -2 93 -6 106
-69 234 -36 72 -145 192 -216 236 -70 43 -171 83 -230 89 -29 3 -68 8 -85 10
-17 3 -40 2 -51 -3z"/>
<path d="M4745 2640 c3 -5 11 -10 16 -10 6 0 7 5 4 10 -3 6 -11 10 -16 10 -6
0 -7 -4 -4 -10z"/>
<path d="M3150 2423 c-52 -5 -272 -33 -297 -38 -14 -3 -24 -15 -28 -37 -29
-138 -151 -272 -280 -308 -16 -5 -60 -20 -97 -33 -45 -17 -89 -25 -132 -25
-36 0 -69 -3 -74 -6 -5 -3 -49 -10 -98 -16 -89 -11 -131 -21 -191 -47 -17 -7
-36 -13 -42 -13 -6 0 -11 -4 -11 -10 0 -5 -6 -10 -14 -10 -19 0 -90 -73 -120
-124 -28 -47 -35 -73 -71 -247 -16 -76 -24 -145 -23 -200 2 -88 4 -92 63 -134
16 -11 40 -29 54 -41 54 -43 174 -64 352 -61 93 2 130 6 143 17 10 8 27 15 37
17 53 8 129 61 209 144 47 49 90 89 96 89 5 0 39 -19 75 -42 35 -24 85 -51
109 -62 25 -10 65 -27 90 -38 25 -10 48 -19 52 -19 5 1 26 -6 47 -15 28 -11
45 -13 58 -6 12 7 25 7 36 1 9 -6 22 -7 29 -3 6 4 8 3 5 -3 -4 -6 17 -16 48
-23 75 -18 104 -38 157 -108 40 -53 72 -120 113 -232 12 -34 62 -164 86 -225
7 -16 13 -33 13 -36 2 -13 104 -179 144 -234 24 -33 82 -95 130 -137 84 -77
146 -108 212 -108 28 0 89 44 168 119 l63 61 -23 33 c-23 34 -77 102 -111 139
-28 30 -50 105 -72 243 -13 84 -12 93 6 149 34 99 84 189 153 269 97 115 144
189 166 266 8 29 -7 144 -18 137 -4 -2 -7 12 -8 32 -2 155 -47 230 -193 330
-56 38 -289 132 -328 132 -7 0 -15 -10 -17 -22 -35 -170 -38 -179 -62 -194
-36 -24 -108 -11 -133 25 -20 28 -25 56 -36 201 -8 107 -21 178 -46 257 -17
50 -31 72 -74 111 -74 68 -111 83 -194 81 -37 -1 -72 0 -77 2 -5 3 -25 3 -44
2z"/>
<path d="M1563 1963 c-12 -8 -28 -16 -35 -17 -7 -2 -20 -6 -28 -9 -41 -18
-343 -88 -402 -93 -38 -4 -68 -10 -68 -14 0 -4 -18 -6 -40 -4 -22 1 -40 -1
-40 -5 0 -4 -30 -8 -67 -8 -38 0 -88 -3 -113 -6 -25 -4 -145 -7 -267 -8 -135
0 -223 -5 -223 -11 0 -41 179 -178 215 -164 9 3 13 2 10 -4 -6 -9 14 -14 43
-11 7 1 20 -5 29 -14 10 -10 19 -13 25 -7 6 6 30 4 66 -5 32 -8 66 -14 77 -15
11 0 15 -2 8 -5 -9 -3 -8 -14 3 -41 50 -119 79 -166 95 -156 5 3 6 -1 3 -9
-11 -29 207 -174 304 -202 64 -19 244 -24 250 -7 5 17 22 15 22 -3 0 -8 3 -15
8 -15 6 0 7 84 2 198 0 6 -7 12 -15 12 -24 0 -17 18 8 22 23 3 29 22 15 50 -4
9 -4 19 1 22 5 3 8 24 7 46 0 22 3 40 8 40 5 0 6 3 3 7 -4 3 -2 12 4 19 7 8 6
14 -2 20 -8 5 -9 3 -4 -6 6 -9 4 -11 -5 -5 -10 6 -10 11 3 20 18 13 24 41 7
30 -5 -3 -10 -2 -10 4 0 5 5 11 12 13 6 2 19 31 28 64 10 32 21 67 25 77 6 14
4 16 -11 10 -17 -6 -17 -5 -6 10 8 9 22 19 31 22 10 3 23 18 30 33 7 15 24 47
39 72 14 25 25 47 23 49 -1 2 3 8 11 12 8 5 0 8 -22 7 -20 -1 -45 -7 -57 -15z
m-982 -329 c9 -8 19 -11 22 -7 4 3 7 1 7 -5 0 -16 -16 -15 -32 2 -11 12 -16
12 -33 -2 -11 -9 -15 -10 -7 -2 10 12 8 17 -10 28 -22 13 -22 13 7 7 17 -4 37
-13 46 -21z m64 -14 c3 -5 1 -10 -4 -10 -6 0 -11 5 -11 10 0 6 2 10 4 10 3 0
8 -4 11 -10z m65 -4 c-4 -4 -16 -4 -26 2 -16 9 -14 10 8 9 15 -1 23 -6 18 -11z
m610 -150 c0 -3 -4 -8 -10 -11 -5 -3 -10 -1 -10 4 0 6 5 11 10 11 6 0 10 -2
10 -4z m-194 -217 c19 -11 34 -26 34 -32 0 -6 -10 -1 -22 10 -13 11 -32 25
-43 31 -11 6 -16 12 -11 12 5 0 24 -9 42 -21z m149 -49 c3 -6 -1 -7 -9 -4 -18
7 -21 14 -7 14 6 0 13 -4 16 -10z m-69 -28 c-4 -3 -14 2 -24 12 -16 18 -16 18
6 6 13 -6 21 -14 18 -18z m158 12 c3 -8 2 -12 -4 -9 -6 3 -10 10 -10 16 0 14
7 11 14 -7z m61 6 c3 -5 1 -10 -4 -10 -6 0 -11 5 -11 10 0 6 2 10 4 10 3 0 8
-4 11 -10z"/>
</g>
</svg>
