<svg id="visual" viewBox="0 0 1440 816" width="1440" height="816" xmlns="http://www.w3.org/2000/svg" xmlns:xlink="http://www.w3.org/1999/xlink" version="1.1"><rect x="0" y="0" width="1440" height="816" fill="#6853ee"></rect><defs><linearGradient id="grad1_0" x1="43.3%" y1="100%" x2="100%" y2="0%"><stop offset="14.705882352941178%" stop-color="#6853ee" stop-opacity="1"></stop><stop offset="85.29411764705881%" stop-color="#6853ee" stop-opacity="1"></stop></linearGradient></defs><defs><linearGradient id="grad2_0" x1="0%" y1="100%" x2="56.7%" y2="0%"><stop offset="14.705882352941178%" stop-color="#6853ee" stop-opacity="1"></stop><stop offset="85.29411764705881%" stop-color="#6853ee" stop-opacity="1"></stop></linearGradient></defs><g transform="translate(1440, 816)"><path d="M-348 0C-341.1 -44.8 -334.1 -89.5 -317.8 -131.6C-301.5 -173.7 -275.8 -213.2 -243.2 -243.2C-210.7 -273.3 -171.4 -294.1 -129.7 -313.2C-88.1 -332.3 -44 -349.7 0 -367.2L0 0Z" fill="#5742db"></path></g><g transform="translate(0, 0)"><path d="M367.2 0C343.8 40.8 320.4 81.7 304.9 126.3C289.4 170.9 281.8 219.3 254.6 254.6C227.3 289.8 180.4 311.8 134.7 325.2C89 338.6 44.5 343.3 0 348L0 0Z" fill="#5742db"></path></g></svg>